<?xml version="1.0" standalone="no"?><!DOCTYPE svg PUBLIC "-//W3C//DTD SVG 1.1//EN" "http://www.w3.org/Graphics/SVG/1.1/DTD/svg11.dtd"><svg t="1493209640865" class="icon" style="" viewBox="0 0 1024 1024" version="1.1" xmlns="http://www.w3.org/2000/svg" p-id="2413" xmlns:xlink="http://www.w3.org/1999/xlink" width="24" height="24"><defs><style type="text/css"></style></defs><path d="M578.304 512.149333 987.818667 102.656c18.304-18.304 18.304-48 0-66.325333s-48-18.304-66.282667 0L512 445.824 102.485333 36.330667c-18.304-18.304-47.978667-18.304-66.282667 0s-18.304 48 0 66.325333l409.493333 409.493333L37.226667 920.576c-18.304 18.304-18.304 48 0 66.304 18.304 18.325333 48 18.325333 66.325333 0L512 578.453333l408.448 408.448c18.304 18.325333 47.978667 18.325333 66.325333 0 18.261333-18.304 18.261333-48 0-66.304L578.304 512.149333z" p-id="2414" fill="#ffffff"></path></svg>