<?xml version="1.0" standalone="no"?><!DOCTYPE svg PUBLIC "-//W3C//DTD SVG 1.1//EN" "http://www.w3.org/Graphics/SVG/1.1/DTD/svg11.dtd"><svg t="1493177492382" class="icon" style="" viewBox="0 0 1024 1024" version="1.1" xmlns="http://www.w3.org/2000/svg" p-id="2394" xmlns:xlink="http://www.w3.org/1999/xlink" width="24" height="24"><defs><style type="text/css"></style></defs><path d="M511.928 657.3792c2.2336-2.7568 3.3296-4.3888 4.6944-5.7536 114.6272-114.6384 229.288-229.2432 343.896-343.9008 8.7376-8.7424 18.7952-12.488 30.8528-8.9664 20.2256 5.9056 27.312 31.0608 13.4 47.0848-0.9536 1.0976-2.008 2.1088-3.0368 3.1376-122.312 122.2848-244.6416 244.5488-366.9008 366.8864-8.5616 8.5664-18.4032 13.0848-30.192 9.392-5.4448-1.7056-10.8688-5.224-14.9456-9.2832-72.3552-72.008-144.5008-144.2256-216.6912-216.3984-50.344-50.3312-100.696-100.656-151.0224-151.0032-11.5616-11.5664-13.1952-26.888-4.288-39.0912 10.0576-13.7776 29.4512-16.08 42.4176-4.9952 1.7184 1.4688 3.2912 3.1104 4.8928 4.712 114.192 114.1568 228.384 228.3168 342.5472 342.5024C508.9088 653.0576 509.9248 654.7568 511.928 657.3792z" p-id="2395" fill="#707070"></path></svg>